<svg width="486" height="134" viewBox="0 0 486 134" fill="none" xmlns="http://www.w3.org/2000/svg">
<g clip-path="url(#clip0_233_3)">
<path fill-rule="evenodd" clip-rule="evenodd" d="M408 11.7998L485.9 73.9998L403.4 128.4L463.1 80.5998L420.2 46.1998C422.5 34.9998 420.3 23.1998 408 11.7998Z" fill="#006EB7"/>
<path fill-rule="evenodd" clip-rule="evenodd" d="M417.401 52.5L452.801 80.9L387.801 133.9L436.101 85.2L406.901 62.2C410.801 59.6 414.601 57.2 417.401 52.5Z" fill="#00A14B"/>
<path fill-rule="evenodd" clip-rule="evenodd" d="M78.3 90.7L80.4 75.7H75.5L76 72.5H89.3L88.8 75.7H84.3L82.3 90.7" fill="#00A14B"/>
<path d="M82.3008 90.7004H78.2008V90.6004L80.2008 75.7004H75.3008V75.6004L75.8008 72.4004H89.3008V72.5004L88.9008 75.7004H84.4008M78.4008 90.6004H82.2008L84.2008 75.7004H88.7008L89.1008 72.7004H76.0008L75.6008 75.7004H80.5008V75.8004L78.4008 90.6004Z" fill="#00A14B"/>
<path fill-rule="evenodd" clip-rule="evenodd" d="M93.6004 78.0996C95.6004 78.0996 97.1004 78.5996 98.3004 79.6996C99.5004 80.7996 100.1 82.2996 100.1 84.0996C100.1 86.0996 99.4004 87.7996 98.0004 89.0996C96.6004 90.3996 94.8004 91.0996 92.7004 91.0996C90.8004 91.0996 89.2004 90.4996 88.1004 89.4996C87.0004 88.3996 86.4004 86.9996 86.4004 85.1996C86.4004 83.0996 87.1004 81.4996 88.4004 80.0996C89.7004 78.7996 91.5004 78.0996 93.6004 78.0996ZM93.6004 81.2996C92.5004 81.2996 91.7004 81.6996 91.0004 82.2996C90.3004 82.9996 90.0004 83.8996 90.0004 85.0996C90.0004 85.9996 90.3004 86.5996 90.7004 87.1996C91.2004 87.6996 91.9004 87.9996 92.7004 87.9996C93.8004 87.9996 94.6004 87.5996 95.3004 86.9996C96.0004 86.2996 96.3004 85.3996 96.3004 84.2996C96.3004 83.3996 96.1004 82.6996 95.6004 82.1996C95.2004 81.5996 94.5004 81.2996 93.6004 81.2996Z" fill="#00A14B"/>
<path d="M92.7002 91.2C90.8002 91.2 89.2002 90.6 88.0002 89.5C86.8002 88.4 86.2002 86.9 86.2002 85.1C86.2002 83 86.9002 81.3 88.3002 80C89.7002 78.7 91.4002 78 93.5002 78C95.5002 78 97.1002 78.5 98.3002 79.7C99.5002 80.8 100.1 82.3 100.1 84.2C100.1 86.3 99.4002 88 98.0002 89.2C96.6002 90.6 94.9002 91.2 92.7002 91.2ZM93.6002 78.2C91.5002 78.2 89.8002 78.8 88.4002 80.2C87.1002 81.5 86.4002 83.2 86.4002 85.2C86.4002 87 87.0002 88.4 88.1002 89.5C89.2002 90.6 90.8002 91.1 92.7002 91.1C94.9002 91.1 96.6002 90.5 98.0002 89.1C99.4002 87.8 100.1 86.2 100.1 84.2C100.1 82.3 99.5002 80.9 98.4002 79.8C97.1002 78.7 95.6002 78.2 93.6002 78.2ZM92.8002 88C91.9002 88 91.2002 87.7 90.7002 87.2C90.2002 86.7 90.0002 86 90.0002 85.1C90.0002 84 90.3002 83 91.0002 82.3C91.7002 81.6 92.6002 81.2 93.7002 81.2C94.6002 81.2 95.3002 81.5 95.8002 82C96.3002 82.5 96.6002 83.2 96.6002 84.2C96.6002 85.3 96.3002 86.3 95.6002 87C94.8002 87.7 93.9002 88 92.8002 88ZM93.6002 81.4C92.6002 81.4 91.7002 81.7 91.1002 82.4C90.5002 83.1 90.1002 84 90.1002 85.1C90.1002 85.9 90.3002 86.6 90.8002 87.1C91.3002 87.6 91.9002 87.8 92.8002 87.8C93.8002 87.8 94.7002 87.5 95.3002 86.8C95.9002 86.1 96.3002 85.2 96.3002 84.1C96.3002 83.2 96.1002 82.5 95.6002 82C95.1002 81.7 94.4002 81.4 93.6002 81.4Z" fill="#00A14B"/>
<path fill-rule="evenodd" clip-rule="evenodd" d="M107.001 78.5L106.301 83.6C106.301 83.8 106.201 84 106.201 84.2C106.101 85 106.001 85.5 106.001 85.8C106.001 86.5 106.201 87.1 106.601 87.5C107.001 87.9 107.601 88.1 108.301 88.1C109.301 88.1 110.001 87.8 110.501 87.2C111.001 86.6 111.301 85.3 111.601 83.5L112.301 78.6H115.901L115.201 83.9C115.001 85.6 114.701 86.8 114.401 87.6C114.101 88.4 113.701 89 113.101 89.5C112.501 90.1 111.801 90.5 111.001 90.8C110.201 91.1 109.201 91.2 108.201 91.2C106.401 91.2 105.001 90.8 103.901 90C102.801 89.2 102.301 88.1 102.301 86.7C102.301 86.4 102.301 85.9 102.401 85.3C102.501 84.7 102.601 83.9 102.701 83L103.301 78.6H107.001" fill="#00A14B"/>
<path d="M108.3 91.2C106.5 91.2 105.1 90.8 104 90C102.9 89.2 102.4 88.1 102.4 86.7C102.4 86.4 102.4 85.9 102.5 85.3C102.6 84.7 102.7 83.9 102.8 83L103.4 78.5H107.2L106.5 83.7C106.5 83.8 106.5 83.8 106.5 83.9C106.5 84 106.5 84.1 106.5 84.3C106.4 85 106.3 85.6 106.3 85.9C106.3 86.6 106.5 87.1 106.9 87.5C107.3 87.9 107.8 88.1 108.5 88.1C109.5 88.1 110.2 87.8 110.7 87.2C111.2 86.6 111.5 85.3 111.8 83.5L112.5 78.6H116.3V78.7L115.6 84C115.4 85.6 115.1 86.9 114.8 87.7C114.5 88.5 114 89.2 113.5 89.7C112.9 90.3 112.2 90.7 111.4 91C110.3 91.1 109.3 91.2 108.3 91.2ZM103.5 78.6L102.9 83C102.8 83.9 102.7 84.7 102.6 85.3C102.5 85.9 102.5 86.3 102.5 86.7C102.5 88 103 89.1 104 89.9C105 90.7 106.4 91.1 108.2 91.1C109.2 91.1 110.2 91 111 90.7C111.8 90.4 112.5 90 113.1 89.5C113.6 89 114 88.4 114.3 87.6C114.6 86.8 114.9 85.6 115.1 83.9L115.8 78.7H112.3L111.7 83.5C111.4 85.4 111.1 86.6 110.6 87.3C110.1 88 109.3 88.3 108.3 88.3C107.6 88.3 107 88.1 106.6 87.7C106.2 87.3 106 86.7 106 86C106 85.7 106.1 85.1 106.2 84.4C106.2 84.2 106.2 84.1 106.2 84C106.2 83.9 106.2 83.9 106.2 83.8L106.9 78.8H103.5V78.6Z" fill="#00A14B"/>
<path fill-rule="evenodd" clip-rule="evenodd" d="M128.4 82.4996C127.8 82.0996 127.3 81.6996 126.8 81.4996C126.3 81.2996 125.8 81.1996 125.3 81.1996C124.1 81.1996 123.2 81.5996 122.5 82.2996C121.8 82.9996 121.4 83.9996 121.4 85.1996C121.4 86.0996 121.7 86.7996 122.3 87.3996C122.9 87.8996 123.6 88.1996 124.6 88.1996C125.1 88.1996 125.7 88.0996 126.3 87.8996C126.9 87.6996 127.5 87.4996 128.2 87.1996L127.6 90.4996C127.1 90.7996 126.6 90.8996 126 90.9996C125.4 91.0996 124.8 91.1996 124.2 91.1996C122.3 91.1996 120.7 90.6996 119.6 89.5996C118.4 88.4996 117.9 87.0996 117.9 85.1996C117.9 83.0996 118.6 81.3996 119.9 80.0996C121.2 78.7996 123 78.0996 125.1 78.0996C125.9 78.0996 126.7 78.1996 127.4 78.3996C128.1 78.5996 128.8 78.8996 129.4 79.3996L128.4 82.4996Z" fill="#00A14B"/>
<path d="M124.101 91.1996C122.101 91.1996 120.601 90.5996 119.401 89.5996C118.201 88.4996 117.601 86.9996 117.601 85.1996C117.601 83.0996 118.301 81.3996 119.701 80.0996C121.001 78.7996 122.801 78.0996 124.901 78.0996C125.801 78.0996 126.501 78.1996 127.201 78.3996C127.901 78.5996 128.601 78.8996 129.201 79.3996L128.301 82.4996L128.201 82.3996C127.601 81.9996 127.101 81.5996 126.601 81.4996C126.101 81.2996 125.601 81.1996 125.101 81.1996C124.001 81.1996 123.001 81.5996 122.301 82.2996C121.601 82.9996 121.201 83.8996 121.201 85.0996C121.201 85.9996 121.501 86.6996 122.001 87.1996C122.601 87.6996 123.301 87.9996 124.301 87.9996C124.801 87.9996 125.401 87.8996 125.901 87.6996C126.401 87.5996 127.101 87.2996 127.801 86.9996L127.901 86.8996L127.301 90.3996C126.701 90.6996 126.201 90.7996 125.701 90.8996C125.401 91.1996 124.801 91.1996 124.101 91.1996ZM124.901 78.1996C122.801 78.1996 121.101 78.8996 119.801 80.1996C118.501 81.4996 117.801 83.1996 117.801 85.1996C117.801 86.9996 118.401 88.3996 119.501 89.4996C120.601 90.5996 122.201 91.0996 124.101 91.0996C124.801 91.0996 125.401 90.9996 125.901 90.8996C126.401 90.7996 127.001 90.5996 127.501 90.3996L128.101 87.1996C127.401 87.4996 126.801 87.6996 126.301 87.8996C125.701 88.0996 125.201 88.1996 124.601 88.1996C123.601 88.1996 122.801 87.8996 122.201 87.3996C121.601 86.7996 121.301 86.0996 121.301 85.1996C121.301 83.9996 121.701 82.9996 122.401 82.2996C123.101 81.5996 124.101 81.1996 125.301 81.1996C125.801 81.1996 126.401 81.2996 126.901 81.4996C127.401 81.6996 127.901 81.9996 128.401 82.3996L129.201 79.4996C128.601 79.0996 127.901 78.6996 127.201 78.5996C126.501 78.2996 125.801 78.1996 124.901 78.1996Z" fill="#00A14B"/>
<path fill-rule="evenodd" clip-rule="evenodd" d="M130.2 90.7L132.8 71.5H136.4L135.4 78.7C135.3 79.1 135.3 79.4 135.2 79.6C135.1 79.8 135.1 80.1 135 80.3C135.7 79.5 136.5 79 137.2 78.6C137.9 78.2 138.7 78.1 139.6 78.1C141 78.1 142 78.4 142.8 79.1C143.6 79.7 143.9 80.6 143.9 81.8C143.9 82.3 143.8 83 143.7 84C143.7 84.1 143.7 84.2 143.6 84.3L142.7 90.7H139.1L140 83.9C140 83.6 140.1 83.4 140.1 83.3C140.1 83.1 140.1 83 140.1 82.9C140.1 82.3 139.9 81.9 139.6 81.6C139.3 81.3 138.8 81.1 138.2 81.1C137.1 81.1 136.3 81.4 135.7 82C135.1 82.6 134.8 83.5 134.6 84.8L133.8 90.8H130.2" fill="#00A14B"/>
<path d="M142.8 90.7H139L139.9 83.9C139.9 83.8 139.9 83.6 139.9 83.5C139.9 83.4 139.9 83.3 139.9 83.3C139.9 83.1 139.9 82.9 139.9 82.9C139.9 82.3 139.7 81.9 139.4 81.6C139.1 81.3 138.6 81.2 138 81.2C137 81.2 136.2 81.5 135.6 82.1C135 82.7 134.7 83.6 134.5 84.8L133.7 90.8H129.9V90.7L132.5 71.5H136.2L135.2 78.8C135.2 79.1 135.1 79.5 135 79.8C135 79.9 134.9 80.1 134.9 80.2C135.6 79.6 136.2 79.1 136.9 78.8C137.6 78.4 138.4 78.3 139.3 78.3C140.7 78.3 141.8 78.6 142.5 79.3C143.3 79.9 143.7 80.9 143.7 82C143.7 82.4 143.6 83.1 143.5 84.2L143.4 84.5M139.2 90.6H142.7L143.6 84.2L143.7 83.9C143.8 82.8 143.9 82.1 143.9 81.7C143.9 80.6 143.5 79.7 142.8 79.1C142.1 78.5 141 78.2 139.7 78.2C138.9 78.2 138.1 78.4 137.4 78.7C136.7 79.1 135.9 79.6 135.2 80.4L135.1 80.3C135.2 80.1 135.3 79.8 135.3 79.6C135.4 79.3 135.4 79 135.5 78.7L136.5 71.6H133L130.4 90.6H133.9L134.7 84.7C134.9 83.4 135.3 82.5 135.8 81.9C136.4 81.3 137.3 81 138.3 81C138.9 81 139.4 81.2 139.8 81.5C140.2 81.8 140.3 82.3 140.3 82.9C140.3 82.9 140.3 83.2 140.3 83.3C140.3 83.4 140.3 83.5 140.3 83.6C140.3 83.7 140.3 83.8 140.3 84L139.2 90.6Z" fill="#00A14B"/>
<path fill-rule="evenodd" clip-rule="evenodd" d="M146.301 90.7002L147.901 78.6002H151.501L149.901 90.7002H146.301ZM148.201 73.8002C148.201 73.2002 148.401 72.7002 148.801 72.3002C149.201 71.9002 149.701 71.7002 150.301 71.7002C150.901 71.7002 151.401 71.9002 151.801 72.3002C152.201 72.7002 152.401 73.2002 152.401 73.8002C152.401 74.4002 152.201 74.8002 151.801 75.2002C151.401 75.6002 150.901 75.8002 150.301 75.8002C149.701 75.8002 149.201 75.6002 148.801 75.2002C148.401 74.9002 148.201 74.4002 148.201 73.8002Z" fill="#00A14B"/>
<path d="M150 90.6998H146.2V90.5998L147.8 78.3998H151.6V78.4998M146.4 90.5998H149.9L151.5 78.5998H148L146.4 90.5998ZM150.3 75.9998C149.7 75.9998 149.1 75.7998 148.7 75.3998C148.3 74.9998 148 74.4998 148 73.8998C148 73.2998 148.2 72.7998 148.7 72.3998C149.1 71.9998 149.6 71.7998 150.3 71.7998C150.9 71.7998 151.4 71.9998 151.8 72.3998C152.2 72.7998 152.5 73.2998 152.5 73.8998C152.5 74.4998 152.3 74.9998 151.8 75.3998C151.5 75.7998 151 75.9998 150.3 75.9998ZM148.3 73.8998C148.3 74.4998 148.5 74.8998 148.9 75.2998C149.3 75.6998 149.8 75.8998 150.4 75.8998C151 75.8998 151.5 75.6998 151.8 75.2998C152.2 74.8998 152.4 74.3998 152.4 73.8998C152.4 73.2998 152.2 72.8998 151.8 72.4998C151.4 72.0998 150.9 71.8998 150.4 71.8998C149.8 71.8998 149.3 72.0998 148.9 72.4998C148.5 72.7998 148.3 73.2998 148.3 73.8998Z" fill="#00A14B"/>
<path fill-rule="evenodd" clip-rule="evenodd" d="M153.5 90.7002L155.2 78.6002H158.6L158.3 80.5002C159.1 79.7002 159.8 79.1002 160.6 78.8002C161.4 78.4002 162.1 78.2002 163 78.2002C164.4 78.2002 165.4 78.5002 166.2 79.2002C167 79.8002 167.3 80.7002 167.3 81.9002C167.3 82.4002 167.2 83.1002 167.1 84.1002C167.1 84.2002 167.1 84.3002 167 84.4002L166.1 90.8002H162.5L163.4 84.0002C163.4 83.7002 163.5 83.5002 163.5 83.4002C163.5 83.2002 163.5 83.1002 163.5 83.0002C163.5 82.4002 163.3 82.0002 163 81.7002C162.7 81.4002 162.2 81.2002 161.6 81.2002C160.6 81.2002 159.7 81.5002 159.1 82.1002C158.5 82.7002 158.2 83.6002 158 84.9002L157.2 90.9002H153.5" fill="#00A14B"/>
<path d="M166.1 90.6996H162.3L163.2 83.8996C163.2 83.7996 163.2 83.5996 163.2 83.4996C163.2 83.3996 163.2 83.2996 163.2 83.2996C163.2 83.0996 163.2 82.8996 163.2 82.8996C163.2 82.2996 163.1 81.8996 162.7 81.5996C162.4 81.2996 161.9 81.1996 161.3 81.1996C160.3 81.1996 159.5 81.4996 158.9 82.0996C158.3 82.6996 158 83.5996 157.8 84.7996L157 90.7996H153.2L154.9 78.4996H158.4L158.1 80.2996C158.8 79.5996 159.6 78.9996 160.2 78.6996C161 78.2996 161.8 78.0996 162.6 78.0996C164 78.0996 165.1 78.3996 165.8 79.0996C166.6 79.6996 167 80.6996 167 81.7996C167 82.1996 166.9 82.8996 166.8 83.9996L166.7 84.2996M162.5 90.5996H166L166.9 84.1996L167 83.8996C167.1 82.7996 167.2 82.0996 167.2 81.6996C167.2 80.5996 166.8 79.6996 166.1 79.0996C165.4 78.4996 164.3 78.1996 163 78.1996C162.1 78.1996 161.4 78.3996 160.6 78.6996C159.9 79.0996 159.1 79.5996 158.3 80.3996L158.2 80.2996L158.5 78.4996H155.3L153.7 90.4996H157.2L158 84.5996C158.2 83.2996 158.6 82.3996 159.2 81.7996C159.8 81.1996 160.7 80.8996 161.7 80.8996C162.3 80.8996 162.8 81.0996 163.2 81.3996C163.6 81.6996 163.7 82.1996 163.7 82.7996C163.7 82.7996 163.7 83.0996 163.7 83.1996C163.7 83.2996 163.7 83.3996 163.7 83.4996C163.7 83.5996 163.7 83.6996 163.7 83.8996L162.5 90.5996Z" fill="#00A14B"/>
<path fill-rule="evenodd" clip-rule="evenodd" d="M179.901 78.4998H183.401L182.101 88.4998C182.101 88.5998 182.101 88.6998 182.001 88.8998C181.601 91.5998 181.101 93.3998 180.401 94.1998C179.901 94.8998 179.101 95.3998 178.201 95.6998C177.301 95.9998 176.201 96.1998 174.801 96.1998C172.901 96.1998 171.501 95.7998 170.501 95.0998C169.501 94.3998 169.001 93.2998 168.801 91.8998L172.101 91.5998C172.301 92.2998 172.501 92.7998 173.001 93.0998C173.501 93.3998 174.101 93.5998 174.901 93.5998C176.101 93.5998 176.901 93.1998 177.401 92.4998C177.901 91.7998 178.201 90.5998 178.301 88.7998C177.801 89.3998 177.301 89.8998 176.601 90.1998C175.901 90.4998 175.201 90.6998 174.301 90.6998C172.701 90.6998 171.401 90.1998 170.501 89.2998C169.601 88.2998 169.201 86.8998 169.201 85.1998C169.201 83.0998 169.801 81.4998 170.901 80.1998C172.001 78.8998 173.501 78.2998 175.201 78.2998C176.101 78.2998 176.901 78.4998 177.601 78.7998C178.301 79.1998 178.901 79.6998 179.401 80.3998L179.901 78.4998ZM179.301 83.6998C179.301 82.7998 179.101 82.0998 178.501 81.5998C178.001 81.0998 177.301 80.7998 176.401 80.7998C175.401 80.7998 174.501 81.1998 173.901 81.8998C173.301 82.5998 173.001 83.5998 173.001 84.8998C173.001 85.6998 173.301 86.3998 173.801 86.8998C174.301 87.3998 175.001 87.6998 175.901 87.6998C176.901 87.6998 177.701 87.2998 178.301 86.5998C179.001 85.8998 179.301 84.8998 179.301 83.6998Z" fill="#00A14B"/>
<path d="M174.901 96.3C173.001 96.3 171.601 95.9 170.601 95.2C169.601 94.5 169.001 93.4 168.801 91.9V91.8H168.901L172.301 91.5V91.6C172.501 92.3 172.801 92.7 173.201 93C173.701 93.3 174.301 93.5 175.101 93.5C176.301 93.5 177.101 93.2 177.601 92.5C178.101 91.8 178.401 90.7 178.501 89.1C178.101 89.6 177.601 90.1 176.901 90.4C176.201 90.7 175.501 90.9 174.601 90.9C173.001 90.9 171.701 90.4 170.801 89.4C169.901 88.4 169.401 87 169.401 85.2C169.401 83.2 170.001 81.4 171.101 80.1C172.201 78.8 173.701 78.1 175.501 78.1C176.401 78.1 177.201 78.3 178.001 78.6C178.701 78.9 179.201 79.4 179.701 80L179.901 78.4H183.601V78.5L182.301 88.5C182.301 88.5 182.201 88.7 182.201 88.9C181.801 91.6 181.301 93.4 180.601 94.3C180.101 95 179.301 95.5 178.401 95.8C177.501 96.1 176.301 96.3 174.901 96.3ZM169.001 91.9C169.201 93.3 169.801 94.3 170.701 95C171.701 95.7 173.101 96 174.901 96C176.301 96 177.401 95.8 178.201 95.5C179.101 95.2 179.801 94.7 180.401 94C181.101 93.2 181.601 91.4 181.901 88.7C181.901 88.5 182.001 88.3 182.001 88.3L183.301 78.4H180.001L179.701 80H179.601C179.101 79.3 178.601 78.8 177.901 78.5C177.201 78.1 176.401 78 175.501 78C173.801 78 172.301 78.6 171.201 79.9C170.101 81.2 169.501 82.9 169.501 84.9C169.501 86.6 169.901 88 170.801 89C171.701 89.9 172.901 90.4 174.501 90.4C175.401 90.4 176.101 90.2 176.801 89.9C177.501 89.6 178.001 89.1 178.501 88.5H178.601C178.501 90.3 178.201 91.5 177.701 92.2C177.201 92.9 176.301 93.3 175.101 93.3C174.301 93.3 173.701 93.1 173.201 92.8C172.701 92.5 172.401 92 172.301 91.3L169.001 91.9ZM175.901 87.8C175.001 87.8 174.301 87.5 173.701 87C173.101 86.5 172.901 85.8 172.901 84.9C172.901 83.6 173.201 82.6 173.801 81.9C174.401 81.2 175.301 80.8 176.301 80.8C177.201 80.8 177.901 81.1 178.401 81.6C178.901 82.1 179.201 82.8 179.201 83.8V83.9C179.201 85.1 178.901 86.1 178.301 86.8C177.801 87.4 177.001 87.8 175.901 87.8ZM176.401 80.9C175.401 80.9 174.601 81.2 174.001 81.9C173.401 82.6 173.101 83.6 173.101 84.8C173.101 85.6 173.401 86.3 173.901 86.8C174.401 87.3 175.101 87.6 176.001 87.6C177.001 87.6 177.801 87.3 178.401 86.5C179.001 85.8 179.301 84.9 179.301 83.7V83.6C179.301 82.7 179.001 82.1 178.601 81.6C178.001 81.2 177.301 80.9 176.401 80.9Z" fill="#00A14B"/>
<path fill-rule="evenodd" clip-rule="evenodd" d="M193.301 90.7L195.701 72.5H199.701L197.601 87.4H204.101L203.701 90.7" fill="#00A14B"/>
<path d="M203.8 90.7004H193.2V90.6004L195.7 72.4004H199.8V72.5004L197.8 87.3004H204.3V87.4004M193.4 90.6004H203.7L204.1 87.5004H197.6V87.4004L199.6 72.6004H195.8L193.4 90.6004Z" fill="#00A14B"/>
<path fill-rule="evenodd" clip-rule="evenodd" d="M205.9 90.7002L207.5 78.6002H211.1L209.5 90.7002H205.9ZM207.8 73.8002C207.8 73.2002 208 72.7002 208.4 72.3002C208.8 71.9002 209.3 71.7002 209.9 71.7002C210.5 71.7002 211 71.9002 211.4 72.3002C211.8 72.7002 212 73.2002 212 73.8002C212 74.4002 211.8 74.8002 211.4 75.2002C211 75.6002 210.5 75.8002 209.9 75.8002C209.3 75.8002 208.8 75.6002 208.4 75.2002C208 74.9002 207.8 74.4002 207.8 73.8002Z" fill="#00A14B"/>
<path d="M209.601 90.6998H205.801V90.5998L207.401 78.3998H211.201V78.4998M206.001 90.5998H209.501L211.101 78.5998H207.601L206.001 90.5998ZM210.001 75.9998C209.401 75.9998 208.801 75.7998 208.401 75.3998C208.001 74.9998 207.701 74.4998 207.701 73.8998C207.701 73.2998 207.901 72.7998 208.301 72.3998C208.701 71.9998 209.201 71.7998 209.901 71.7998C210.501 71.7998 211.001 71.9998 211.401 72.3998C211.801 72.7998 212.101 73.2998 212.101 73.8998C212.101 74.4998 211.901 74.9998 211.401 75.3998C211.101 75.7998 210.601 75.9998 210.001 75.9998ZM207.901 73.8998C207.901 74.3998 208.101 74.8998 208.501 75.2998C208.901 75.6998 209.401 75.8998 210.001 75.8998C210.601 75.8998 211.101 75.6998 211.401 75.2998C211.801 74.8998 212.001 74.3998 212.001 73.8998C212.001 73.2998 211.801 72.8998 211.401 72.4998C211.001 72.0998 210.501 71.8998 210.001 71.8998C209.401 71.8998 208.901 72.0998 208.501 72.4998C208.101 72.7998 207.901 73.2998 207.901 73.8998Z" fill="#00A14B"/>
<path fill-rule="evenodd" clip-rule="evenodd" d="M215.9 90.6996L212.7 78.5996H216.6L217.9 84.9996C218 85.4996 218 85.8996 218.1 86.1996C218.1 86.5996 218.2 86.8996 218.2 87.2996V87.5996C218.4 86.9996 218.6 86.4996 218.7 86.0996C218.9 85.5996 219 85.2996 219.2 84.9996L222.4 78.6996H226.6L219.8 90.7996H215.9" fill="#00A14B"/>
<path d="M219.801 90.7004H215.801V90.6004L212.601 78.4004H216.701V78.5004L218.001 84.9004C218.101 85.2004 218.101 85.5004 218.101 85.8004C218.101 85.9004 218.101 86.1004 218.201 86.2004C218.201 86.4004 218.201 86.6004 218.201 86.8004C218.201 86.9004 218.201 87.0004 218.201 87.1004C218.301 86.7004 218.501 86.3004 218.601 86.0004C218.801 85.5004 218.901 85.2004 219.101 84.9004L222.401 78.5004H226.701L226.601 78.6004M215.901 90.6004H219.701L226.401 78.6004H222.401L219.201 84.9004C219.001 85.2004 218.901 85.6004 218.701 86.0004C218.501 86.4004 218.301 86.9004 218.201 87.5004H218.101V87.2004C218.101 87.0004 218.101 86.9004 218.101 86.7004C218.101 86.5004 218.101 86.3004 218.101 86.1004C218.101 86.0004 218.101 85.9004 218.001 85.7004C218.001 85.4004 217.901 85.1004 217.901 84.8004L216.601 78.5004H212.801L215.901 90.6004Z" fill="#00A14B"/>
<path fill-rule="evenodd" clip-rule="evenodd" d="M230.4 85.3998V85.6998C230.4 86.4998 230.7 87.0998 231.2 87.5998C231.8 88.0998 232.5 88.2998 233.4 88.2998C234.1 88.2998 234.6 88.0998 235.1 87.8998C235.6 87.5998 236.1 87.1998 236.5 86.5998L238.9 88.5998C238.3 89.4998 237.5 90.0998 236.5 90.5998C235.5 90.9998 234.4 91.2998 233.1 91.2998C231.2 91.2998 229.6 90.6998 228.5 89.6998C227.3 88.5998 226.7 87.1998 226.7 85.2998C226.7 83.2998 227.4 81.5998 228.7 80.2998C230 78.9998 231.7 78.2998 233.8 78.2998C235.7 78.2998 237.2 78.8998 238.3 79.8998C239.4 80.9998 239.9 82.4998 239.9 84.4998C239.9 84.6998 239.9 84.9998 239.8 85.3998V85.4998H230.4M230.6 83.2998H236.5C236.5 82.4998 236.3 81.7998 235.8 81.3998C235.4 80.8998 234.7 80.6998 233.9 80.6998C233 80.6998 232.3 80.8998 231.8 81.3998C231.2 81.7998 230.8 82.4998 230.6 83.2998Z" fill="#00A14B"/>
<path d="M233.2 91.2C231.3 91.2 229.7 90.6 228.5 89.5C227.3 88.4 226.7 86.9 226.7 85.1C226.7 83.1 227.4 81.3 228.7 80C230 78.7 231.8 78 233.8 78C235.7 78 237.2 78.6 238.3 79.7C239.4 80.8 239.9 82.3 239.9 84.3C239.9 84.5 239.9 84.8 239.8 85.3V85.4H230.3V85.6C230.3 86.4 230.5 87 231.1 87.5C231.7 88 232.4 88.2 233.3 88.2C233.9 88.2 234.4 88.1 235 87.8C235.5 87.5 236 87.1 236.4 86.5V86.4H236.5L239 88.4V88.5C238.4 89.3 237.6 90 236.6 90.5C235.6 91 234.5 91.2 233.2 91.2ZM233.9 78.2C231.9 78.2 230.2 78.8 228.9 80.2C227.6 81.5 226.9 83.2 226.9 85.2C226.9 87 227.5 88.4 228.6 89.5C229.7 90.6 231.3 91.1 233.2 91.1C234.5 91.1 235.6 90.9 236.6 90.4C237.5 90 238.3 89.3 238.9 88.5L236.6 86.6C236.2 87.1 235.7 87.6 235.2 87.8C234.7 88.1 234.1 88.2 233.5 88.2C232.6 88.2 231.8 88 231.2 87.5C230.7 87 230.4 86.4 230.4 85.5V85.1H239.9C240 84.7 240 84.4 240 84.2C240 82.3 239.5 80.8 238.4 79.7C237.2 78.7 235.7 78.2 233.9 78.2ZM236.6 83.4H230.6V83.3H230.5C230.8 82.4 231.2 81.8 231.8 81.3C232.3 80.8 233.1 80.6 234 80.6C234.8 80.6 235.5 80.8 235.9 81.3C236.3 81.8 236.6 82.5 236.6 83.4ZM230.7 83.2H236.5C236.5 82.4 236.3 81.8 235.8 81.4C235.4 81 234.8 80.7 234 80.7C233.1 80.7 232.4 80.9 231.9 81.3C231.3 81.8 230.9 82.4 230.7 83.2Z" fill="#00A14B"/>
<path fill-rule="evenodd" clip-rule="evenodd" d="M243.1 86.7998C243.5 87.3998 244 87.7998 244.5 88.1998C245 88.4998 245.5 88.6998 246.1 88.6998C246.5 88.6998 246.9 88.5998 247.2 88.3998C247.5 88.1998 247.6 87.8998 247.6 87.5998C247.6 87.0998 247.1 86.5998 246.1 86.0998C245.7 85.8998 245.4 85.6998 245.2 85.5998C244.3 84.9998 243.7 84.4998 243.3 83.9998C243 83.4998 242.8 82.8998 242.8 82.1998C242.8 81.0998 243.3 80.0998 244.2 79.3998C245.1 78.6998 246.3 78.2998 247.7 78.2998C248.6 78.2998 249.4 78.4998 250.2 78.7998C251 79.0998 251.7 79.5998 252.3 80.2998L250.2 82.1998C249.7 81.6998 249.3 81.3998 248.9 81.0998C248.5 80.8998 248 80.6998 247.6 80.6998C247.2 80.6998 246.9 80.7998 246.6 80.9998C246.4 81.1998 246.2 81.4998 246.2 81.7998C246.2 82.2998 246.9 82.7998 248.2 83.4998C248.6 83.6998 248.9 83.8998 249.1 83.9998C249.8 84.3998 250.3 84.7998 250.6 85.2998C250.9 85.7998 251.1 86.3998 251.1 87.0998C251.1 88.2998 250.7 89.2998 249.7 90.0998C248.8 90.8998 247.6 91.2998 246.2 91.2998C245.2 91.2998 244.3 91.0998 243.4 90.6998C242.6 90.2998 241.8 89.7998 241 88.9998L243.1 86.7998Z" fill="#00A14B"/>
<path d="M246.1 91.1996C245.1 91.1996 244.2 90.9996 243.3 90.5996C242.4 90.1996 241.6 89.5996 240.9 88.8996V88.7996L241 88.6996L243.2 86.5996L243.3 86.6996C243.7 87.2996 244.2 87.6996 244.7 88.0996C245.2 88.3996 245.7 88.5996 246.2 88.5996C246.6 88.5996 247 88.4996 247.2 88.2996C247.4 88.0996 247.6 87.8996 247.6 87.4996C247.6 86.9996 247.1 86.4996 246.2 85.9996L245.9 85.7996C245.7 85.6996 245.5 85.4996 245.3 85.4996C244.4 84.8996 243.8 84.3996 243.4 83.8996C243 83.3996 242.9 82.6996 242.9 82.0996C242.9 80.9996 243.4 79.9996 244.3 79.1996C245.2 78.4996 246.4 78.0996 247.9 78.0996C248.8 78.0996 249.7 78.2996 250.4 78.5996C251.2 78.8996 251.9 79.3996 252.5 80.0996L252.6 80.1996L250.3 82.1996H250.2C249.8 81.6996 249.3 81.3996 248.9 81.0996C248.5 80.8996 248 80.7996 247.6 80.7996C247.2 80.7996 246.9 80.8996 246.7 81.0996C246.5 81.2996 246.4 81.4996 246.4 81.7996C246.4 82.1996 247 82.7996 248.3 83.4996L248.5 83.5996C248.8 83.6996 249 83.8996 249.1 83.9996C249.8 84.3996 250.3 84.8996 250.6 85.3996C250.9 85.8996 251.1 86.4996 251.1 87.1996C251.1 88.4996 250.6 89.4996 249.7 90.2996C248.8 90.7996 247.6 91.1996 246.1 91.1996ZM241.1 88.7996C241.8 89.4996 242.6 90.0996 243.4 90.4996C244.2 90.8996 245.1 91.0996 246.1 91.0996C247.5 91.0996 248.7 90.6996 249.6 89.9996C250.5 89.1996 250.9 88.2996 250.9 86.9996C250.9 86.2996 250.7 85.6996 250.4 85.1996C250.1 84.6996 249.6 84.2996 248.9 83.8996C248.7 83.7996 248.5 83.6996 248.3 83.4996L248.1 83.3996C246.7 82.6996 246.1 82.0996 246.1 81.5996C246.1 81.2996 246.2 80.9996 246.5 80.7996C246.8 80.5996 247.1 80.4996 247.5 80.4996C247.9 80.4996 248.4 80.5996 248.8 80.8996C249.2 81.1996 249.7 81.4996 250.1 81.9996L252.1 80.1996C251.5 79.5996 250.8 79.0996 250.1 78.7996C249.4 78.4996 248.5 78.2996 247.6 78.2996C246.2 78.2996 245 78.6996 244.1 79.3996C243.2 80.1996 242.7 81.0996 242.7 82.1996C242.7 82.8996 242.9 83.4996 243.2 83.9996C243.5 84.4996 244.1 84.9996 245 85.5996C245.2 85.6996 245.4 85.7996 245.6 85.8996L245.9 86.0996C246.9 86.6996 247.4 87.1996 247.4 87.6996C247.4 88.0996 247.3 88.2996 247 88.5996C246.7 88.7996 246.4 88.8996 245.9 88.8996C245.4 88.8996 244.8 88.6996 244.3 88.3996C243.8 88.0996 243.3 87.5996 242.9 87.0996L241.1 88.7996Z" fill="#00A14B"/>
<path fill-rule="evenodd" clip-rule="evenodd" d="M268.6 78.0996C270.6 78.0996 272.1 78.5996 273.3 79.6996C274.5 80.7996 275.1 82.2996 275.1 84.0996C275.1 86.0996 274.4 87.7996 273 89.0996C271.6 90.3996 269.8 91.0996 267.7 91.0996C265.8 91.0996 264.2 90.4996 263.1 89.4996C261.9 88.3996 261.4 86.9996 261.4 85.1996C261.4 83.0996 262.1 81.4996 263.4 80.0996C264.8 78.7996 266.5 78.0996 268.6 78.0996ZM268.7 81.2996C267.6 81.2996 266.8 81.6996 266.1 82.2996C265.4 82.9996 265.1 83.8996 265.1 85.0996C265.1 85.9996 265.4 86.5996 265.8 87.1996C266.3 87.6996 267 87.9996 267.8 87.9996C268.9 87.9996 269.7 87.5996 270.4 86.9996C271.1 86.2996 271.4 85.3996 271.4 84.2996C271.4 83.3996 271.2 82.6996 270.7 82.1996C270.2 81.5996 269.5 81.2996 268.7 81.2996Z" fill="#00A14B"/>
<path d="M267.7 91.2C265.8 91.2 264.2 90.6 263 89.5C261.8 88.4 261.2 86.9 261.2 85.1C261.2 83 261.9 81.3 263.3 80C264.7 78.7 266.4 78 268.5 78H268.6C270.6 78 272.2 78.5 273.4 79.7C274.6 80.8 275.2 82.3 275.2 84.2C275.2 86.3 274.5 88 273.1 89.2C271.7 90.6 269.9 91.2 267.7 91.2ZM268.7 78.2C266.5 78.2 264.8 78.8 263.5 80.2C262.2 81.5 261.5 83.2 261.5 85.2C261.5 87 262.1 88.4 263.2 89.5C264.3 90.6 265.9 91.1 267.8 91.1C270 91.1 271.7 90.5 273.1 89.1C274.5 87.8 275.2 86.2 275.2 84.2C275.2 82.3 274.6 80.9 273.5 79.8C272.2 78.7 270.7 78.2 268.7 78.2ZM267.8 88C266.9 88 266.2 87.7 265.7 87.2C265.2 86.7 264.9 86 264.9 85.1C264.9 83.9 265.2 83 265.9 82.3C266.6 81.6 267.5 81.2 268.6 81.2C269.5 81.2 270.2 81.5 270.7 82C271.2 82.5 271.5 83.2 271.5 84.2C271.5 85.3 271.2 86.3 270.5 87C269.8 87.7 268.9 88 267.8 88ZM268.7 81.4C267.7 81.4 266.8 81.7 266.1 82.4C265.5 83.1 265.1 84 265.1 85.1C265.1 85.9 265.3 86.6 265.8 87.1C266.3 87.6 266.9 87.8 267.8 87.8C268.8 87.8 269.7 87.5 270.3 86.8C270.9 86.1 271.3 85.2 271.3 84.1C271.3 83.2 271.1 82.5 270.6 82C270.2 81.7 269.5 81.4 268.7 81.4Z" fill="#00A14B"/>
<path fill-rule="evenodd" clip-rule="evenodd" d="M279.7 90.6996L276.5 78.5996H280.4L281.7 84.9996C281.8 85.4996 281.8 85.8996 281.9 86.1996C281.9 86.5996 282 86.8996 282 87.2996V87.5996C282.2 86.9996 282.4 86.4996 282.5 86.0996C282.7 85.5996 282.8 85.2996 283 84.9996L286.2 78.6996H290.4L283.6 90.7996H279.7" fill="#00A14B"/>
<path d="M283.6 90.7004H279.6V90.6004L276.4 78.4004H280.5V78.5004L281.8 84.9004C281.9 85.2004 281.9 85.5004 281.9 85.8004C281.9 85.9004 281.9 86.0004 281.9 86.1004C281.9 86.3004 281.9 86.5004 281.9 86.7004C281.9 86.8004 281.9 86.9004 281.9 87.0004C282 86.6004 282.2 86.2004 282.3 85.9004C282.5 85.4004 282.6 85.1004 282.8 84.8004L286.1 78.4004H290.4L290.3 78.5004M279.7 90.6004H283.5L290.2 78.6004H286.2L283 84.9004C282.8 85.2004 282.7 85.6004 282.5 86.0004C282.3 86.4004 282.1 86.9004 282 87.5004H281.9V87.2004C281.9 87.0004 281.9 86.9004 281.9 86.7004C281.9 86.5004 281.9 86.3004 281.9 86.1004C281.9 86.0004 281.9 85.9004 281.8 85.8004C281.8 85.5004 281.7 85.2004 281.7 84.9004L280.4 78.6004H276.6L279.7 90.6004Z" fill="#00A14B"/>
<path fill-rule="evenodd" clip-rule="evenodd" d="M294.2 85.3998V85.6998C294.2 86.4998 294.5 87.0998 295 87.5998C295.6 88.0998 296.3 88.2998 297.2 88.2998C297.9 88.2998 298.4 88.0998 298.9 87.8998C299.4 87.5998 299.9 87.1998 300.3 86.5998L302.7 88.5998C302.1 89.4998 301.3 90.0998 300.3 90.5998C299.3 90.9998 298.2 91.2998 296.9 91.2998C295 91.2998 293.4 90.6998 292.3 89.6998C291.1 88.5998 290.5 87.1998 290.5 85.2998C290.5 83.2998 291.2 81.5998 292.5 80.2998C293.8 78.9998 295.5 78.2998 297.6 78.2998C299.5 78.2998 301 78.8998 302.1 79.8998C303.2 80.9998 303.7 82.4998 303.7 84.4998C303.7 84.6998 303.7 84.9998 303.6 85.3998V85.4998H294.2M294.4 83.2998H300.3C300.3 82.4998 300.1 81.7998 299.6 81.3998C299.2 80.8998 298.5 80.6998 297.7 80.6998C296.8 80.6998 296.1 80.8998 295.6 81.3998C295.1 81.7998 294.6 82.4998 294.4 83.2998Z" fill="#00A14B"/>
<path d="M297 91.2C295.1 91.2 293.5 90.6 292.3 89.5C291.1 88.4 290.5 86.9 290.5 85.1C290.5 83.1 291.2 81.3 292.5 80C293.9 78.7 295.6 78 297.6 78C299.5 78 301 78.6 302.1 79.7C303.2 80.8 303.7 82.3 303.7 84.3C303.7 84.5 303.7 84.8 303.6 85.3V85.4H294.1V85.6C294.1 86.4 294.3 87 294.9 87.5C295.5 88 296.2 88.2 297.1 88.2C297.7 88.2 298.2 88.1 298.8 87.8C299.3 87.5 299.8 87.1 300.2 86.5V86.4H300.3L302.8 88.4V88.5C302.2 89.3 301.4 90 300.4 90.5C299.4 91 298.3 91.2 297 91.2ZM297.7 78.2C295.7 78.2 294 78.8 292.7 80.2C291.4 81.5 290.7 83.2 290.7 85.2C290.7 87 291.3 88.4 292.4 89.5C293.5 90.6 295.1 91.1 297 91.1C298.3 91.1 299.4 90.9 300.4 90.4C301.3 90 302.1 89.3 302.7 88.5L300.4 86.6C300 87.1 299.5 87.6 299 87.8C298.5 88.1 297.9 88.2 297.3 88.2C296.4 88.2 295.6 88 295.1 87.5C294.6 87 294.3 86.4 294.3 85.5V85.1H303.8C303.9 84.7 303.9 84.4 303.9 84.2C303.9 82.3 303.4 80.8 302.3 79.7C301 78.7 299.5 78.2 297.7 78.2ZM300.4 83.4H294.4V83.3H294.3V83.2C294.6 82.4 295 81.7 295.5 81.3C296 80.8 296.8 80.6 297.7 80.6C298.5 80.6 299.2 80.8 299.6 81.3C300.1 81.8 300.4 82.5 300.4 83.4ZM294.5 83.2H300.3C300.3 82.4 300.1 81.8 299.6 81.4C299.2 81 298.6 80.7 297.8 80.7C296.9 80.7 296.2 80.9 295.7 81.3C295.1 81.8 294.7 82.4 294.5 83.2Z" fill="#00A14B"/>
<path fill-rule="evenodd" clip-rule="evenodd" d="M305.601 90.7002L307.301 78.6002H310.901L310.601 80.7002C311.001 79.9002 311.601 79.2002 312.301 78.8002C312.901 78.4002 313.701 78.2002 314.501 78.2002C314.701 78.2002 314.901 78.2002 315.101 78.2002C315.301 78.2002 315.501 78.3002 315.601 78.3002L314.901 81.8002C314.601 81.7002 314.401 81.7002 314.101 81.6002C313.901 81.5002 313.601 81.5002 313.401 81.5002C312.401 81.5002 311.701 81.8002 311.101 82.5002C310.601 83.2002 310.201 84.2002 310.001 85.5002L309.301 90.7002" fill="#00A14B"/>
<path d="M309.3 90.7H305.5L307.2 78.4H311V78.5L310.7 80.2C311.1 79.5 311.6 79 312.2 78.6C312.8 78.2 313.6 78 314.4 78H314.5C314.7 78 314.8 78 315 78C315.2 78 315.4 78.1 315.5 78.1H315.6V78.2L314.9 81.8H314.8C314.5 81.7 314.3 81.6 314.1 81.6C313.9 81.5 313.6 81.5 313.4 81.5C312.4 81.5 311.7 81.8 311.1 82.5C310.6 83.2 310.2 84.2 310 85.5M305.7 90.6H309.2L309.9 85.5C310.1 84.2 310.4 83.2 311 82.4C311.6 81.7 312.4 81.4 313.4 81.4C313.7 81.4 313.9 81.4 314.1 81.5C314.3 81.5 314.6 81.6 314.8 81.7L315.5 78.3C315.4 78.3 315.2 78.2 315.1 78.2C314.9 78.2 314.8 78.2 314.6 78.2H314.5C313.7 78.2 313 78.4 312.4 78.8C311.8 79.2 311.2 79.9 310.8 80.7H310.7L311 78.7H307.5L305.7 90.6Z" fill="#00A14B"/>
<path fill-rule="evenodd" clip-rule="evenodd" d="M340.101 124.2L337.401 115.4H340.701L341.801 120.3C341.901 120.5 341.901 121 342.101 121.7C342.101 121.9 342.101 122 342.101 122C342.201 121.7 342.301 121.4 342.401 121.1C342.501 120.8 342.701 120.5 342.801 120.2L345.501 115.4H349.001L340.601 128.9H337.101L340.101 124.2Z" fill="#006EB7"/>
<path d="M340.8 128.9H337.2V128.8L340.1 124.1L337.4 115.3H340.8L341.9 120.2C341.9 120.3 342 120.6 342 120.9C342 121.1 342.1 121.3 342.1 121.6C342.1 121.6 342.1 121.7 342.1 121.8C342.2 121.6 342.2 121.5 342.3 121.3C342.3 121.2 342.4 121.1 342.4 121.1C342.5 120.9 342.6 120.7 342.7 120.5C342.7 120.4 342.8 120.3 342.8 120.2L345.6 115.4H349.2V115.5M337.3 128.8H340.7L349 115.4H345.6L342.9 120.2C342.9 120.3 342.8 120.4 342.8 120.5C342.7 120.7 342.6 120.9 342.5 121.1C342.5 121.2 342.4 121.3 342.4 121.3C342.3 121.5 342.2 121.7 342.2 121.9H342.1C342.1 121.9 342.1 121.7 342.1 121.5C342.1 121.3 342 121 342 120.8C341.9 120.5 341.9 120.2 341.9 120.1L340.8 115.3H337.6L340.3 124L337.3 128.8Z" fill="#006EB7"/>
<path fill-rule="evenodd" clip-rule="evenodd" d="M352.4 120.6V120.8C352.4 121.4 352.6 121.9 353.1 122.3C353.6 122.6 354.2 122.8 355 122.8C355.6 122.8 356 122.7 356.4 122.5C356.8 122.3 357.2 122 357.6 121.5L359.7 123C359.2 123.7 358.5 124.2 357.7 124.5C356.9 124.8 355.9 125 354.8 125C353.2 125 351.8 124.6 350.9 123.7C349.9 122.9 349.4 121.8 349.4 120.4C349.4 118.9 350 117.6 351.1 116.6C352.2 115.6 353.7 115.1 355.4 115.1C357 115.1 358.3 115.5 359.2 116.4C360.1 117.3 360.6 118.4 360.6 119.9C360.6 120.1 360.6 120.3 360.6 120.6V120.7H352.4M352.5 119.1H357.5C357.5 118.5 357.3 118 356.9 117.6C356.5 117.3 356 117.1 355.3 117.1C354.6 117.1 354 117.3 353.5 117.6C353.1 117.9 352.8 118.4 352.5 119.1Z" fill="#006EB7"/>
<path d="M354.801 125.1C353.201 125.1 351.801 124.7 350.801 123.8C349.801 123 349.301 121.9 349.301 120.4C349.301 118.8 349.901 117.5 351.001 116.5C352.101 115.5 353.601 115 355.301 115C356.901 115 358.201 115.4 359.101 116.3C360.001 117.2 360.501 118.3 360.501 119.8C360.501 120 360.501 120.2 360.501 120.5V120.6H352.401V120.8C352.401 121.4 352.601 121.9 353.001 122.2C353.501 122.6 354.101 122.7 354.801 122.7C355.301 122.7 355.801 122.6 356.201 122.4C356.601 122.2 357.101 121.8 357.401 121.4L359.501 122.9C359.001 123.5 358.301 124.1 357.501 124.4C356.801 124.9 355.801 125.1 354.801 125.1ZM355.301 115.1C353.601 115.1 352.201 115.6 351.001 116.6C349.901 117.6 349.301 118.9 349.301 120.4C349.301 121.8 349.801 122.9 350.801 123.7C351.801 124.5 353.101 124.9 354.701 124.9C355.801 124.9 356.701 124.7 357.601 124.4C358.401 124.1 359.101 123.6 359.601 123L357.601 121.6C357.201 122 356.801 122.3 356.401 122.6C355.901 122.8 355.501 122.9 354.901 122.9C354.101 122.9 353.501 122.7 353.001 122.3C352.501 121.9 352.301 121.4 352.301 120.8V120.5H360.301C360.301 120.2 360.301 119.9 360.301 119.8C360.301 118.3 359.901 117.2 359.001 116.3C358.201 115.6 356.901 115.1 355.301 115.1ZM357.601 119.1H352.501V119C352.701 118.3 353.101 117.8 353.601 117.5C354.101 117.2 354.701 117 355.401 117C356.101 117 356.601 117.2 357.001 117.5C357.401 117.9 357.601 118.4 357.601 119.1ZM352.601 119H357.501C357.501 118.4 357.301 118 356.901 117.6C356.501 117.3 356.001 117.1 355.301 117.1C354.601 117.1 354.001 117.3 353.501 117.6C353.201 117.9 352.801 118.4 352.601 119Z" fill="#006EB7"/>
<path fill-rule="evenodd" clip-rule="evenodd" d="M372.5 124.7H369.4L369.6 123.7C369.2 124.2 368.8 124.5 368.2 124.7C367.6 124.9 367 125 366.3 125C364.9 125 363.9 124.6 363.1 123.8C362.3 123 362 121.9 362 120.6C362 119 362.5 117.7 363.4 116.6C364.4 115.6 365.6 115.1 367.1 115.1C367.9 115.1 368.5 115.2 369.1 115.5C369.7 115.8 370.2 116.2 370.6 116.7L370.8 115.4H373.9L372.5 124.7ZM370.3 119.5C370.3 118.8 370.1 118.2 369.7 117.8C369.3 117.4 368.7 117.2 367.9 117.2C367 117.2 366.3 117.5 365.8 118C365.3 118.6 365 119.4 365 120.4C365 121.1 365.2 121.6 365.7 122C366.2 122.4 366.8 122.6 367.6 122.6C368.4 122.6 369.1 122.3 369.6 121.7C370.1 121.2 370.3 120.5 370.3 119.5Z" fill="#006EB7"/>
<path d="M366.3 125.1C364.9 125.1 363.9 124.7 363.1 123.9C362.3 123.1 362 122 362 120.6C362 119 362.5 117.6 363.5 116.6C364.5 115.6 365.7 115 367.2 115C368 115 368.6 115.1 369.2 115.4C369.7 115.6 370.2 116 370.6 116.5L370.8 115.3H374V115.4L372.6 124.7H369.4V124.6L369.6 123.8C369.3 124.2 368.8 124.5 368.3 124.7C367.7 125 367 125.1 366.3 125.1ZM367.1 115.1C365.6 115.1 364.4 115.6 363.4 116.6C362.5 117.6 362 119 362 120.5C362 121.9 362.4 122.9 363.1 123.7C363.8 124.5 364.9 124.8 366.2 124.8C366.9 124.8 367.5 124.7 368.1 124.5C368.6 124.3 369.1 123.9 369.4 123.5H369.5L369.3 124.5H372.3L373.7 115.3H370.7L370.5 116.6H370.4C370 116.1 369.5 115.7 369 115.4C368.6 115.3 367.9 115.1 367.1 115.1ZM367.6 122.7C366.8 122.7 366.2 122.5 365.7 122.1C365.2 121.7 365 121.1 365 120.4C365 119.4 365.2 118.6 365.8 118C366.3 117.4 367 117.1 367.9 117.1C368.7 117.1 369.3 117.3 369.7 117.7C370.1 118.1 370.4 118.7 370.4 119.4V119.5C370.4 120.4 370.1 121.2 369.6 121.7C369.1 122.4 368.4 122.7 367.6 122.7ZM367.9 117.3C367 117.3 366.3 117.6 365.8 118.1C365.3 118.7 365.1 119.4 365.1 120.4C365.1 121.1 365.3 121.6 365.8 122C366.3 122.4 366.9 122.6 367.6 122.6C368.4 122.6 369.1 122.3 369.5 121.7C370 121.2 370.2 120.4 370.2 119.5C370.2 118.8 370 118.3 369.6 117.9C369.2 117.5 368.6 117.3 367.9 117.3Z" fill="#006EB7"/>
<path fill-rule="evenodd" clip-rule="evenodd" d="M375.301 124.7L376.701 115.5H379.801L379.501 117.1C379.901 116.5 380.301 116 380.901 115.7C381.401 115.4 382.101 115.2 382.701 115.2C382.901 115.2 383.101 115.2 383.201 115.2C383.401 115.2 383.501 115.2 383.601 115.3L383.001 118C382.801 117.9 382.601 117.9 382.401 117.9C382.201 117.9 382.001 117.8 381.801 117.8C381.001 117.8 380.301 118.1 379.801 118.6C379.301 119.1 379.001 119.9 378.901 120.9L378.301 124.8" fill="#006EB7"/>
<path d="M378.4 124.7H375.2V124.6L376.6 115.3H379.8L379.6 116.7C380 116.2 380.4 115.7 380.9 115.4C381.4 115.1 382.1 114.9 382.8 114.9C383 114.9 383.2 114.9 383.3 114.9C383.4 114.9 383.6 114.9 383.7 115L383.1 117.7H383C382.8 117.6 382.6 117.6 382.4 117.6C382.2 117.6 382 117.5 381.8 117.5C381 117.5 380.4 117.7 379.9 118.2C379.4 118.7 379.1 119.5 379 120.5M375.4 124.6H378.4L379 120.7C379.2 119.7 379.5 118.9 379.9 118.4C380.4 117.9 381.1 117.6 381.9 117.6C382.1 117.6 382.3 117.6 382.5 117.7C382.7 117.7 382.9 117.8 383.1 117.8L383.7 115.2C383.6 115.2 383.5 115.2 383.3 115.1C383.1 115.1 383 115.1 382.8 115.1C382.1 115.1 381.5 115.3 381 115.6C380.5 115.9 380 116.4 379.6 117H379.5L379.8 115.4H376.8L375.4 124.6Z" fill="#006EB7"/>
<path fill-rule="evenodd" clip-rule="evenodd" d="M385.2 121.7C385.6 122.1 386 122.5 386.4 122.7C386.8 122.9 387.3 123.1 387.7 123.1C388.1 123.1 388.4 123 388.6 122.8C388.8 122.6 388.9 122.4 388.9 122.2C388.9 121.8 388.5 121.4 387.7 121C387.4 120.8 387.1 120.7 386.9 120.6C386.1 120.2 385.6 119.8 385.3 119.4C385 119 384.9 118.6 384.9 118C384.9 117.1 385.3 116.4 386.1 115.9C386.9 115.3 387.9 115.1 389.1 115.1C389.8 115.1 390.5 115.2 391.2 115.5C391.8 115.8 392.4 116.1 393 116.6L391.2 118C390.8 117.6 390.4 117.4 390.1 117.2C389.7 117 389.3 116.9 389 116.9C388.7 116.9 388.4 117 388.2 117.1C388 117.2 387.9 117.4 387.9 117.7C387.9 118 388.5 118.5 389.6 119C389.9 119.2 390.2 119.3 390.3 119.4C390.9 119.7 391.3 120 391.6 120.4C391.9 120.8 392 121.2 392 121.8C392 122.7 391.6 123.5 390.8 124.1C390 124.7 389 125 387.8 125C387 125 386.2 124.9 385.5 124.6C384.8 124.3 384.1 123.9 383.5 123.3L385.2 121.7Z" fill="#006EB7"/>
<path d="M387.8 125C386.9 125 386.2 124.9 385.4 124.5C384.7 124.2 384 123.8 383.4 123.2L385.2 121.6C385.5 122 386 122.4 386.4 122.6C386.9 122.9 387.3 123 387.7 123C388.1 123 388.3 122.9 388.6 122.8C388.8 122.7 388.9 122.5 388.9 122.2C388.9 121.8 388.5 121.5 387.7 121.1L387.5 121C387.3 120.9 387.1 120.8 387 120.7C386.2 120.3 385.7 119.9 385.4 119.5C385.1 119.1 384.9 118.6 384.9 118.1C384.9 117.2 385.3 116.5 386.1 115.9C386.9 115.3 387.9 115.1 389.1 115.1C389.9 115.1 390.6 115.2 391.2 115.5C391.9 115.8 392.5 116.1 393 116.6L391.1 118.1C390.7 117.8 390.3 117.5 390 117.3C389.6 117.1 389.3 117 388.9 117C388.6 117 388.3 117.1 388.1 117.2C387.9 117.3 387.8 117.5 387.8 117.7C387.8 118 388.3 118.4 389.4 119L389.6 119.1C389.8 119.2 390 119.3 390.2 119.4C390.8 119.7 391.2 120 391.5 120.4C391.8 120.8 391.9 121.2 391.9 121.8C391.9 122.8 391.5 123.5 390.7 124.1C390 124.7 389 125 387.8 125ZM383.5 123.2C384.1 123.8 384.8 124.2 385.5 124.5C386.2 124.8 386.9 124.9 387.8 124.9C389 124.9 390 124.6 390.7 124C391.5 123.4 391.8 122.7 391.8 121.7C391.8 121.2 391.7 120.7 391.4 120.4C391.1 120 390.7 119.7 390.1 119.4C390 119.3 389.8 119.2 389.5 119.1L389.4 119C388.2 118.4 387.7 118 387.7 117.6C387.7 117.4 387.8 117.1 388 117C388.2 116.8 388.5 116.8 388.8 116.8C389.2 116.8 389.5 116.9 389.9 117.1C390.3 117.3 390.7 117.6 391 117.9L392.7 116.5C392.2 116 391.6 115.7 391 115.4C390.4 115.1 389.7 115 388.9 115C387.7 115 386.7 115.3 385.9 115.8C385.1 116.4 384.7 117.1 384.7 117.9C384.7 118.4 384.8 118.9 385.1 119.2C385.4 119.6 385.9 120 386.7 120.4C386.8 120.5 387 120.6 387.2 120.7L387.4 120.8C388.3 121.2 388.7 121.6 388.7 122C388.7 122.3 388.6 122.5 388.3 122.7C388.1 122.9 387.8 123 387.4 123C387 123 386.5 122.9 386 122.6C385.5 122.3 385.1 122 384.8 121.6L383.5 123.2Z" fill="#006EB7"/>
<path fill-rule="evenodd" clip-rule="evenodd" d="M385.201 74.6002C392.901 74.6002 398.101 81.7002 396.801 90.3002C395.401 99.0002 388.001 106 380.301 106C372.601 106 367.401 98.9002 368.801 90.3002C370.101 81.6002 377.501 74.6002 385.201 74.6002ZM385.701 71.2002C395.901 71.2002 402.801 79.7002 401.101 90.2002C399.401 100.6 389.701 109.2 379.601 109.2C369.401 109.2 362.501 100.7 364.201 90.2002C365.901 79.7002 375.501 71.2002 385.701 71.2002Z" fill="#006EB7"/>
<path fill-rule="evenodd" clip-rule="evenodd" d="M321 78.9002C331.5 77.9002 334.9 76.0002 336.8 71.2002H339.4L333.4 109.1H328.6L332.9 81.5002L320.7 81.3002C320.8 80.6002 320.9 79.8002 321 78.9002Z" fill="#006EB7"/>
<path fill-rule="evenodd" clip-rule="evenodd" d="M375.5 79.9002C376.9 82.9002 377.4 86.4002 376.8 90.2002C376.2 94.0002 374.5 97.6002 372.1 100.6L371.8 100.2C371.1 99.1002 370.6 98.0002 370.3 96.7002C371.4 94.7002 372.2 92.6002 372.5 90.3002C372.9 88.1002 372.8 85.9002 372.3 84.0002L372.7 83.4002C373.4 82.1002 374.4 81.0002 375.5 79.9002ZM361.4 71.2002C365.6 71.2002 369.3 72.7002 372 75.1002L371.8 75.3002L371 76.0002L370.2 76.7002L369.5 77.4002L369 77.9002C366.9 75.8002 364.1 74.6002 360.9 74.6002C353.2 74.6002 345.8 81.7002 344.4 90.3002C343.1 99.0002 348.3 106 356 106C359.3 106 362.5 104.7 365.2 102.6L365.4 102.9L365.9 103.6L366.4 104.3L367 105L367.2 105.2C363.7 107.7 359.5 109.2 355.3 109.2C345.1 109.2 338.2 100.7 339.9 90.2002C341.5 79.7002 351.2 71.2002 361.4 71.2002Z" fill="#006EB7"/>
<path fill-rule="evenodd" clip-rule="evenodd" d="M335.9 9.4L338.1 0H356.6L354.4 9.4H335.9ZM171 57.2L179.7 17.8H197.6L196.4 24.1C199.2 19.9 208.3 15.8 214.5 16.2C225.2 16.9 227 20.2 229.2 25.5C232.4 20.7 239.3 16.6 247.6 16.4C260.1 16.1 265.5 22.1 263.7 30.3L257.7 57.2H239.9L245.6 31.2C246 29.4 243.1 25.9 238.3 25.9C235.1 25.9 229 31.1 228.6 33.2L223.3 57.1H205.6L210.8 33.8C211.8 29.4 208.1 26 204.9 26C199.9 26 195.1 31 194.2 34.6L189.1 57.1H171V57.2ZM87.7 57.2L101.2 0H119.8L106.3 57.2H87.7ZM410.9 41.7C409.2 46.3 404.4 53 399.1 55.3C394.2 57.5 388.3 58.6 381.6 59.2C371.5 60.1 358.2 57.1 355.6 52.6C351.9 49.7 349 39.6 355.1 31.2C356.9 28.7 359.3 25.9 361.7 23.8C364.6 21.2 368.5 19.5 372.6 18.2C376.7 16.9 381.3 16.2 386.4 16.2C393.9 16.2 401.9 17.5 406.4 20.1C410.9 22.8 413.5 27.3 412.2 33L394.1 32.9C393.7 30.1 393.1 26.2 387.9 25.4C383.6 24.8 380.6 26.2 377.5 28.3C375.4 29.7 371.5 35.4 371.7 40.4C371.6 52.9 381.8 49.5 383.8 49.2C388.1 48.7 392.2 43.9 392.1 41.7H410.9ZM34 35.9H56.4L50.1 12.3L34 35.9ZM0 57.2L42.9 0H65.6L84.2 57.2H62.5L59.7 46.7H26.2L18.6 57.2H0ZM134.8 33.2H155.2C155.6 31 155.9 28 153.7 26.2C152.4 25.1 149.5 24 147.3 24C144.8 24 140.8 25 139 26.4C137.1 27.7 135.4 30.7 134.8 33.2ZM170.6 44.7C165.7 55 150.4 61.1 133.8 58.3C123.8 57.1 114.4 55.4 114.4 42.3C114.9 28 125.7 18 145.4 16.3C162 14.8 172.2 21.2 172.7 30.4C172.9 33.9 171.6 37.6 171.1 41.3H133C132 45.7 134.4 50.9 140.6 50.9C145.3 50.9 150 47.9 151.6 44.6L170.6 44.7ZM301 25.5C295.8 24.4 289 26.9 286.2 33.4C277 50.9 298.5 55.9 305.5 40.7C308.9 33.4 306.2 26.6 301 25.5ZM261.7 57.2L275.3 0H292.8L287.5 23.6C292.4 18.7 300 16.4 308.6 16.4C326.6 16.4 328.5 31.6 324.9 41.4C321.5 50.6 310.1 60.3 297.2 59C292.7 58.6 288.9 57.6 285.9 56.1C284.1 55.2 282.7 53.8 281.5 51.5L280.3 57.3H261.7V57.2ZM325.1 57.2L334.4 17.7H353L343.7 57.2H325.1Z" fill="#006EB7"/>
</g>
<defs>
<clipPath id="clip0_233_3">
<rect width="485.9" height="133.8" fill="white"/>
</clipPath>
</defs>
</svg>
